<svg width="0" height="0" class="hidden">
  <symbol fill="none" xmlns="http://www.w3.org/2000/svg" viewBox="0 0 42 42" id="logo">
    <path d="M0 21A21 21 0 1021 0v21H0z" fill="#1ECE7A"></path>
    <path d="M31.563 21a10.563 10.563 0 00-21.125 0h21.125z" fill="#fff"></path>
  </symbol>
    <symbol fill="none" xmlns="http://www.w3.org/2000/svg" viewBox="0 0 55 55" id="alarm">
    <rect opacity=".6" width="55" height="55" rx="24" fill="#F1C1C9"></rect>
    <path fill-rule="evenodd" clip-rule="evenodd" d="M26.836 12.167c0-.368.297-.667.664-.667.367 0 .664.299.664.667V17.5a.666.666 0 01-.664.667.666.666 0 01-.664-.667v-5.333zm-6.38 7.986L16.7 16.38a.662.662 0 00-.94 0 .669.669 0 000 .943l3.757 3.771c.26.26.68.26.94 0a.669.669 0 000-.942zM38.3 16.38c.26-.26.68-.26.94 0a.67.67 0 010 .943l-3.757 3.771c-.26.26-.68.26-.94 0a.669.669 0 010-.942L38.3 16.38zm-.968 21.786h.793c1.098 0 1.992.897 1.992 2v2.666a.665.665 0 01-.664.667H15.547a.665.665 0 01-.664-.667v-2.666c0-1.103.894-2 1.992-2h.793L19.83 26a4.651 4.651 0 014.574-3.834h6.192a4.652 4.652 0 014.574 3.832l2.162 12.168zM24.404 23.5a3.322 3.322 0 00-3.267 2.737l-2.12 11.93h16.966l-2.12-11.932a3.322 3.322 0 00-3.267-2.735h-6.192zm-8.193 18.667h22.578v-2a.666.666 0 00-.664-.667h-21.25c-.366 0-.664.3-.664.667v2zm15.273-14c0-.368.298-.667.664-.667a.666.666 0 010 1.333.666.666 0 01-.664-.666zm2.805 7.88l-.974-5.383a.664.664 0 10-1.307.238l.974 5.384a.664.664 0 101.307-.239zm3.836-8.547h5.71c.368 0 .665.299.665.667a.665.665 0 01-.664.666h-5.711a.665.665 0 01-.664-.666c0-.369.297-.667.664-.667zm-21.25 0h-5.71a.665.665 0 00-.665.667c0 .368.297.666.664.666h5.711a.665.665 0 00.664-.666.665.665 0 00-.664-.667z" fill="#D62642"></path>
  </symbol>
  <symbol fill="none" xmlns="http://www.w3.org/2000/svg" viewBox="0 0 55 55" id="diagnostic">
    <rect opacity=".6" width="55" height="55" rx="24" fill="#C5D7F2"></rect>
    <path fill-rule="evenodd" clip-rule="evenodd" d="M41.1 26.11a3.944 3.944 0 013.359 3.321c.313 2.143-1.191 4.132-3.36 4.441-2.168.31-4.18-1.177-4.492-3.32-.313-2.144 1.191-4.133 3.36-4.442v-1.017c0-2.193-1.653-3.977-3.684-3.977-1.973 0-3.627 1.73-3.683 3.856v11.012c0 4.142-3.178 7.516-7.084 7.516-3.905 0-7.083-3.37-7.083-7.516v-.956c-.821 0-1.7-.588-1.7-2.24v-1.41c-3.635-.916-6.233-4.005-6.233-7.509v-1.165h1.133v-7.282a2.81 2.81 0 012.357-2.754 1.714 1.714 0 013.214-.097 1.682 1.682 0 01-.965 2.19 1.714 1.714 0 01-2.214-.955 1.684 1.684 0 00-1.258 1.616v7.282h1.7v1.184a4.461 4.461 0 003.254 4.18 5.21 5.21 0 003.117 0 4.464 4.464 0 003.262-4.18v-1.184h1.133l-.025-7.287a1.684 1.684 0 00-1.235-1.604 1.683 1.683 0 01-1.044.966 1.695 1.695 0 01-2.132-1.07 1.668 1.668 0 011.082-2.108 1.695 1.695 0 012.132 1.07 2.813 2.813 0 012.332 2.742l.023 7.291H27.5v1.168c0 3.5-2.597 6.587-6.233 7.507v1.409c0 1.652-.879 2.24-1.7 2.24v.956c0 3.526 2.668 6.396 5.95 6.396 3.28 0 5.95-2.866 5.95-6.396V24.945l.032-.006h-.033c.078-2.727 2.237-4.945 4.817-4.945 2.656 0 4.816 2.288 4.816 5.098v1.018zM21.832 13.181c0 .31.254.56.567.56.313 0 .567-.25.567-.56 0-.31-.254-.56-.567-.56a.563.563 0 00-.567.56zm-5.666 0c0-.31-.254-.56-.567-.56a.563.563 0 00-.567.56c0 .31.254.56.567.56.313 0 .567-.25.567-.56zm-4.534 10.644v.044c0 3.117 2.43 5.859 5.78 6.521a8.174 8.174 0 003.173.001c3.35-.663 5.78-3.405 5.78-6.522v-.044h-1.133v.063c-.043 2.436-1.683 4.561-4.048 5.245a6.375 6.375 0 01-3.807 0c-2.364-.685-4.002-2.81-4.045-5.245v-.063h-1.7zm6.234 8.963c0 .336.056 1.12.566 1.12h1.133c.51 0 .567-.784.567-1.12v-1.19c-.024.004-.049.006-.073.008l-.063.005a5.417 5.417 0 01-.175.016 9.42 9.42 0 01-.808.04h-.029a9.48 9.48 0 01-.81-.04l-.043-.004a5.533 5.533 0 01-.128-.012l-.055-.005a1.711 1.711 0 01-.082-.007v1.189zM37.7 29.987c0 1.547 1.268 2.8 2.833 2.8 1.564-.001 2.831-1.254 2.833-2.8 0-1.547-1.268-2.801-2.833-2.801-1.565 0-2.833 1.254-2.833 2.8zm1.133 0c0-.928.761-1.68 1.7-1.68s1.7.752 1.7 1.68a1.69 1.69 0 01-1.7 1.68 1.69 1.69 0 01-1.7-1.68zm1.133 0c0 .309.254.56.567.56a.564.564 0 00.567-.56c0-.31-.254-.56-.567-.56a.563.563 0 00-.567.56z" fill="#2682D6"></path>
  </symbol>
  <symbol fill="none" xmlns="http://www.w3.org/2000/svg" viewBox="0 0 55 55" id="insurance">
    <rect opacity=".6" width="55" height="55" rx="24" fill="#C5F2DC"></rect>
    <path fill-rule="evenodd" clip-rule="evenodd" d="M36.735 13.49l-9.002-3.94a.6.6 0 00-.48 0l-9.002 3.94a.6.6 0 00-.36.55v9.42a6.608 6.608 0 002.737 5.344l6.221 4.486c.384.278.904.278 1.288 0l6.222-4.485a6.608 6.608 0 002.736-5.345v-9.42a.6.6 0 00-.36-.55zm-.84 9.97a5.405 5.405 0 01-2.239 4.371l-6.163 4.445-6.163-4.445a5.405 5.405 0 01-2.239-4.371v-9.028l8.402-3.677 8.402 3.677v9.028zm-8.642-11.29l-6.6 2.89a.6.6 0 00-.361.55v7.85a4.2 4.2 0 001.74 3.399l5.11 3.685a.6.6 0 00.703 0l5.11-3.685a4.2 4.2 0 001.74-3.399v-7.85a.6.6 0 00-.36-.55l-6.601-2.89a.6.6 0 00-.48 0zm6.242 3.831v7.46a3 3 0 01-1.242 2.425l-4.76 3.432-4.758-3.432a3 3 0 01-1.243-2.425V16l6.002-2.626 6 2.626zM13.164 26.387l1.298 3.033a2.761 2.761 0 013.28.17 11.872 11.872 0 003.435 2.204 4.32 4.32 0 012 1.46 6.286 6.286 0 011.316 3.93V38.3a1.2 1.2 0 011.2 1.2v4.8a1.2 1.2 0 01-1.2 1.2H17.89a1.2 1.2 0 01-1.2-1.2v-4.8c0-.304.117-.596.325-.816l-3.698-3.699a6.373 6.373 0 01-1.303-1.88l-2.352-5.173a1.912 1.912 0 113.5-1.545zM17.89 44.3h6.602v-4.8H17.89v4.8zm5.402-7.117a5.09 5.09 0 00-1.053-3.18 3.152 3.152 0 00-1.443-1.07 12.798 12.798 0 01-3.829-2.424 1.56 1.56 0 00-1.944-.032c.217.323.465.625.74.9l2.742 2.741a.6.6 0 11-.849.849l-2.741-2.742a7.08 7.08 0 01-1.514-2.235l-1.342-3.13a.712.712 0 00-1.255-.105.713.713 0 00-.05.681l2.352 5.173a5.19 5.19 0 001.06 1.528L18.33 38.3h4.963v-1.117zm-.6 4.117h-.6a.6.6 0 100 1.2h.6a.6.6 0 000-1.2zm22.631-13.368l-2.352 5.173a6.373 6.373 0 01-1.302 1.88l-3.699 3.699c.208.22.325.512.325.816v4.8a1.2 1.2 0 01-1.2 1.2h-6.601a1.2 1.2 0 01-1.2-1.2v-4.8a1.2 1.2 0 011.2-1.2v-1.117a6.286 6.286 0 011.315-3.932 4.321 4.321 0 012-1.458 11.869 11.869 0 003.436-2.205 2.768 2.768 0 013.283-.18l1.295-3.02a1.913 1.913 0 113.5 1.544zM30.494 44.3h6.602v-4.8h-6.601v4.8zm1.2-6h4.963l4.162-4.163a5.19 5.19 0 001.059-1.528l2.352-5.172a.713.713 0 10-1.305-.577l-1.342 3.13a7.077 7.077 0 01-1.514 2.236l-2.741 2.741a.6.6 0 01-.849-.848l2.742-2.742c.277-.276.526-.58.743-.906a1.56 1.56 0 00-1.947.038 12.79 12.79 0 01-3.83 2.424 3.154 3.154 0 00-1.44 1.07 5.09 5.09 0 00-1.052 3.18V38.3zm1.2 3h-.6a.6.6 0 000 1.2h.6a.6.6 0 100-1.2zm-9.482-18.96a.6.6 0 01.84-.12l1.893 1.42 4.45-6.673a.6.6 0 01.998.666l-4.801 7.2a.6.6 0 01-.86.147l-2.4-1.8a.6.6 0 01-.12-.84z" fill="#1ECE7A"></path>
  </symbol>
  <symbol fill="none" xmlns="http://www.w3.org/2000/svg" viewBox="0 0 55 55" id="support">
    <rect opacity=".6" width="55" height="55" rx="24" fill="#FAE3AF"></rect>
    <path fill-rule="evenodd" clip-rule="evenodd" d="M43.796 9.5h-8.148c-.963 0-1.746.781-1.746 1.742v4.645c0 .96.783 1.742 1.746 1.742h1.554l-.602 3.502 5.617-3.502h1.579c.962 0 1.745-.782 1.745-1.742v-4.645c0-.96-.783-1.742-1.745-1.742zm.581 6.387c0 .32-.26.58-.581.58h-1.913l-3.697 2.305.397-2.304h-2.935a.582.582 0 01-.582-.58v-4.646c0-.32.261-.58.582-.58h8.148c.32 0 .581.26.581.58v4.645zm-5.594 24.968l-1.348-4.033a4.071 4.071 0 00-3.136-2.714l-3.89-.706v-.3a5.855 5.855 0 001.736-1.537h1.174c.963 0 1.746-.782 1.746-1.742v-6.968c0-4.162-3.394-7.549-7.565-7.549-4.172 0-7.566 3.387-7.566 7.549v4.064c0 1.12.798 2.056 1.856 2.275a5.818 5.818 0 002.8 3.908v.3l-3.89.706a4.07 4.07 0 00-3.136 2.714l-.233.697-1.982-1.978a.58.58 0 010-.821l2.299-2.293-4.315-4.305-2.598 2.592a4.033 4.033 0 00-1.193 2.874c0 1.086.424 2.106 1.193 2.874l7.866 7.847a4.053 4.053 0 002.88 1.191 4.037 4.037 0 002.863-1.173l2.834-2.592-.884-.88h12.489zM33.9 29.823c0 .32-.26.58-.582.58h-.489c.169-.383.297-.788.38-1.21.249-.05.478-.15.691-.274v.904zm-.582-1.904v-2c.347.202.582.572.582 1 0 .428-.235.799-.582 1zm-11.64 0a1.157 1.157 0 01-.581-1c0-.428.236-.798.582-1v2zm0-3.903v.663a2.312 2.312 0 00-.581.24v-2.064c0-3.522 2.872-6.387 6.402-6.387 3.53 0 6.401 2.865 6.401 6.387v2.065a2.289 2.289 0 00-.582-.24v-.664h-.582a6.41 6.41 0 01-4.556-1.883l-.681-.68-.682.68a6.411 6.411 0 01-4.556 1.883h-.582zm1.165 4.065v-2.926a7.553 7.553 0 004.656-2.063 7.55 7.55 0 004.656 2.063v2.926c0 .846-.232 1.638-.63 2.322H27.5v1.162h3.069a4.637 4.637 0 01-3.07 1.16c-2.566 0-4.655-2.083-4.655-4.644zm6.402 5.539v.027L27.5 35.389l-1.746-1.742v-.027a5.825 5.825 0 003.492 0zm-10.578 3.569a2.909 2.909 0 012.24-1.94l4.068-.736L27.5 37.03l2.523-2.518 4.068.738a2.908 2.908 0 012.24 1.938l.837 2.505H25.13l-2.266-2.262-2.52 2.273a.595.595 0 01-.822 0l-1.271-1.268.416-1.248zm-5.336-7.425l2.67 2.663-.633.63-2.669-2.662.632-.631zm10.206 13.725a2.9 2.9 0 01-2.058.85 2.897 2.897 0 01-2.058-.85l-7.865-7.848a2.88 2.88 0 01-.852-2.052c0-.776.302-1.505.852-2.053l.32-.32 2.669 2.663-.021.02c-.68.68-.68 1.785 0 2.465l4.173 4.163c.33.33.768.51 1.235.51.467 0 .905-.18 1.214-.49l.043-.038 2.682 2.675-.334.305zm1.193-1.091l-2.676-2.67.769-.693 2.67 2.665-.763.698zm11.5-30.575h6.984v1.16H36.23v-1.16zm4.656 2.322H36.23v1.161h4.656v-1.16zm1.163 0h1.164v1.161H42.05v-1.16zM27.5 11.242c-7.603 0-14.154 5.248-15.856 12.568l-1.103-1.834-.998.597 2.045 3.401 3.409-2.04-.599-.997-1.577.944c1.65-6.696 7.685-11.478 14.68-11.478 1.529 0 3.037.227 4.483.674l.345-1.11a16.32 16.32 0 00-4.828-.725zm14.35 9.074l3.41 2.04-.6.996-1.71-1.023c.56 1.66.846 3.395.846 5.171a16.27 16.27 0 01-3.635 10.237l-.904-.732a15.11 15.11 0 003.375-9.505c0-1.677-.274-3.314-.81-4.88l-1.018 1.695-.998-.598 2.045-3.401z" fill="#D69026"></path>
  </symbol>
</svg>